<?xml version="1.0" encoding="UTF-8" standalone="no"?><!DOCTYPE svg PUBLIC "-//W3C//DTD SVG 1.1//EN" "http://www.w3.org/Graphics/SVG/1.1/DTD/svg11.dtd"><svg width="100%" height="100%" viewBox="0 0 1882 1579" version="1.1" xmlns="http://www.w3.org/2000/svg" xmlns:xlink="http://www.w3.org/1999/xlink" xml:space="preserve" xmlns:serif="http://www.serif.com/" style="fill-rule:evenodd;clip-rule:evenodd;stroke-linejoin:round;stroke-miterlimit:2;"><rect id="Artboard1" x="0" y="0" width="1881.254" height="1578.618" style="fill:none;"/><clipPath id="_clip1"><rect x="0" y="0" width="1881.254" height="1578.618"/></clipPath><g clip-path="url(#_clip1)"><path d="M-1184.158,-1287.532l4266.662,0c4.819,8.952 0,9.741 0,127.083l0,4139.579c-8.951,4.819 -9.741,-0 -127.079,-0l-4139.583,0c-4.28,-7.947 -0,-18.053 -0,-27.079l0,-4239.583Z" style="fill:#fefefe;"/><path d="M554.318,592.499c121.858,-98.995 206.796,-64.438 316.521,-45.243c84.141,14.72 205.184,-3.92 210.744,65.792c5.631,70.61 -97.236,54.324 -178.629,56.197c-33.194,0.764 -77.145,7.193 -61.883,10.44c35.177,7.485 34.5,9.592 69.59,16.797c188.961,38.801 203.276,-18.418 262.152,-104.261c4.158,-6.063 40.195,-58.605 78.174,-48.305c17.887,4.851 7.162,26.751 17.707,19.608c39.531,-26.778 65.369,-14.362 69.064,-11.991c8.633,5.538 9.447,13.136 10.248,14.312c1.905,2.796 41.226,-3.613 39.562,22.285c-1.787,27.816 -124.451,186.446 -248.501,218.214c-36.411,9.324 -51.609,29.33 -109.753,56.733c-89.337,42.105 -192.236,-28.809 -340.376,-52.529c-183.238,-29.339 -238.665,95.002 -259.162,117.49c-7.125,7.817 -8.117,-31.282 -8.188,-34.086c-3.572,-140.914 58.136,-210.504 67.44,-229.136c1.602,-3.209 -2.607,-5.971 -43.616,10.385c-42.05,16.771 -89.464,48.927 -53.853,20.801c52.922,-41.798 117.592,-58.123 120.437,-61.139c20.58,-21.818 19.817,-22.244 42.32,-42.364Z" style="fill:#262d64;"/><path d="M1193.555,739.301c-63.108,46.356 -62.861,54.819 -141.342,54.258c-216.619,-1.547 -417.981,-172.846 -578.365,-27.668c-18.547,16.789 -34.725,43.19 -28.925,26.114c22.696,-66.824 72.103,-136.056 82.685,-138.536c44.124,-10.344 183.013,5.955 264.355,40.461c7.812,3.314 8.422,-1.057 18.696,2.142c364.556,113.507 411.323,-130.91 505.133,-133.109c38.781,-0.909 4.548,39.525 -13.546,64.106c-48.049,65.276 -98.808,104.581 -108.691,112.233Z" style="fill:#fefefd;"/><path d="M572.383,608.21c107.415,-82.536 169.236,-62 278.599,-41.133c101.503,19.368 207.54,-2.364 211.443,48.401c4.376,56.919 -120.909,20.696 -211.846,44.057c-28.14,7.229 -27.663,16.653 -49.925,9.351c-193.797,-63.564 -246.179,-32.868 -250.576,-38.662c-1.516,-1.997 -1.002,-3.04 22.304,-22.015Z" style="fill:#fefefe;"/><path d="M1021.281,244.086c2.172,-1.833 25.724,-24.811 74.505,-44.465c49.732,-20.037 102.536,-25.222 106.442,-23.83c3.878,1.382 5.003,69.472 -20.021,137.451c-46.31,125.802 -178.788,130.88 -196.138,131.525c-6.387,0.238 3.591,-15.806 5.422,-19.442c57.355,-113.921 109.71,-149.77 113.809,-155.622c10.227,-14.602 -15.647,5.484 -16.781,6.365c-100.983,78.394 -109.54,135.957 -117.814,136.475c-2.291,0.143 -4.17,-0.377 -5.81,-28.103c-5.017,-84.842 35.817,-119.94 56.386,-140.355Z" style="fill:#ffb300;"/><path d="M909.351,275.134c15.756,24.562 37.123,60.335 26.588,135.094c-2.36,16.749 -18.235,-38.515 -77.388,-96.941c-35.567,-35.13 -89.616,-68.622 -51.609,-35.059c56.145,49.581 117.999,162.627 110.044,166.22c-0.546,0.247 -88.495,0.437 -149.224,-58.203c-12.465,-12.036 -70.291,-67.872 -68.731,-205.405c0.1,-8.847 23.01,-3.086 32.283,-1.726c119.381,17.512 168.352,83.056 178.037,96.019Z" style="fill:#ffb300;"/><path d="M428.691,910.743c-0.933,-92.756 16.788,-105.808 31.56,-121.244c121.112,-126.563 289.537,-31.846 412.77,0.532c177.799,46.714 209.308,19.18 197.289,29.683c-1.663,1.453 -39.879,19.546 -43.369,21.199c-94.266,44.63 -207.501,-44.064 -370.157,-56.249c-161.917,-12.129 -224.473,125.141 -225.864,127.599l-2.229,-1.52Z" style="fill:#fefefd;"/><path d="M1575.777,1035.868c4.979,-9.119 35.701,-65.392 101.649,-80.832c161.034,-37.701 247.818,141.398 165.164,238.845c-112.789,132.975 -343.338,15.954 -266.813,-158.013Z" style="fill:#262d62;"/><path d="M909.752,44.951c75.72,-47.084 145.445,50.949 93.443,106.391c-67.86,72.351 -182.607,-33.406 -93.443,-106.391Z" style="fill:#ffb300;"/><path d="M143.311,1048.6c26.382,-28.223 82.045,-88.725 84.289,-90.578c4.078,-3.366 4.623,-3.344 65.956,-4.278c16.663,-0.254 -2.113,8.492 -89.246,106.092c-11.096,12.429 -22.403,14.487 -5.045,38.064c97.265,132.113 100.002,130.186 106.241,142.999c2.18,4.477 -0.908,9.378 -61.975,5.771c-16.078,-0.95 -73.012,-95.129 -96.395,-117.667c-4.792,-4.619 -20.327,13.941 -39.535,33.846c-10.032,10.397 -3.638,68.708 -5.436,77.781c-2.226,11.234 -57.788,5.144 -58.656,4.319c-4.841,-4.604 -2.625,-285.654 -2.1,-286.645c3.792,-7.159 6.195,-3.017 31.422,-3.049c12.908,-0.016 27.934,-4.676 28.183,10.365c1.779,107.658 -0.191,107.524 -0.025,116.872c0.199,11.165 7.807,3.298 42.319,-33.894Z" style="fill:#272d63;"/><path d="M1293.057,985.72c7.041,-5.254 48.695,-43.547 129.925,-33.877c44.897,5.345 98.448,36.378 85.977,50.003c-24.323,26.573 -26.025,35.252 -41.697,23.999c-48.394,-34.747 -123.482,-30.799 -155.27,32.238c-42.051,83.391 51.854,173.657 138.817,126.436c5.786,-3.142 3.227,-5.11 4.939,-77.289c0.272,-11.462 28.631,-8.286 46.25,-8.304c13.408,-0.014 10.02,16.753 9.962,58.332c-0.058,41.153 13.978,51.669 -22.773,70.229c-186.596,94.233 -334.847,-114.306 -196.131,-241.768Z" style="fill:#262d64;"/><path d="M1776.436,1177.391c-141.875,88.374 -217.027,-140.1 -78.834,-171.126c83.175,-18.674 162.398,89.323 78.834,171.126Z" style="fill:#fdfdfd;"/><path d="M874.344,969.755c0.068,-1.033 0.733,-11.17 2.481,-12.695c3.487,-3.043 51.557,-2.235 54.937,-0.958c9.43,3.563 0.405,226.381 5.077,233.762c5.283,8.347 123.311,0.43 132.123,4.409c5.601,2.529 3.568,47.369 2.318,49.628c-3.746,6.769 -192.816,2.459 -194.38,0.987c-1.715,-1.614 -2.706,-1.818 -2.555,-275.132Z" style="fill:#282f66;"/><path d="M549.544,1007.264c-0.246,180.796 -1.217,185.443 6.802,186.11c27.419,2.28 128.057,-5.707 129.138,5.523c4.624,48.008 -4.606,48.336 -8.541,48.475c-1.272,0.045 -181.878,-0.111 -182.924,-0.461c-5.456,-1.83 -5.697,-3.994 -5.649,-160.485c0.039,-126.594 -0.427,-129.103 4.716,-130.416c3.359,-0.857 50.279,-2.984 54.612,1.378c2.69,2.708 1.839,32.038 1.846,49.877Z" style="fill:#282f64;"/><path d="M1131.175,1246.485c-4.441,-0.528 -12.026,2.354 -12.16,-10.058c-0.241,-22.272 -2.957,-273.081 0.739,-278.413c2.517,-3.632 59.99,-7.986 60.458,3.563c0.3,7.399 0.898,276.382 0.457,278.933c-1.547,8.939 -31.267,5.99 -49.494,5.976Z" style="fill:#272d62;"/><path d="M732.989,1111.437c0.741,-48.659 -1.09,-145.062 0.44,-150.605c2.452,-8.882 58.663,-9.196 60.722,0.502c0.29,1.365 0.952,273.257 0.575,279.5c-0.514,8.516 -32.72,6.235 -46.905,6.021c-1.281,-0.019 -13.579,-0.205 -14.605,-6.56c-0.415,-2.57 -0.243,-118.549 -0.227,-128.858Z" style="fill:#292f65;"/><path d="M346.495,1232.25c0.017,-63.884 0.035,-127.767 0.052,-191.651c-0.03,-76.024 -3.971,-85.049 13.806,-85.421c45.426,-0.951 46.205,2.229 47.108,5.918c1.997,8.155 0.632,253.375 0.509,275.408c-0.044,7.866 -2.575,11.261 -51.876,10.079c-12.961,-0.311 -9.402,-13.021 -9.6,-14.332Z" style="fill:#292e65;"/><path d="M1315.985,635.518c23.181,-31.328 26.709,-42.49 29.338,-47.592c3.903,-7.574 47.001,-14.582 26.623,16.959c-49.223,76.189 -181.31,169.819 -188.001,164.933c-9.433,-6.889 35.221,-10.12 132.039,-134.3Z" style="fill:#fdfcfc;"/><path d="M1188.813,632.719c-4.746,4.199 -66.247,58.616 -65.214,44.973c0.558,-7.373 9.674,-1.451 56.945,-72.792c3.653,-5.512 38.533,-58.153 65.891,-49.91c21.598,6.508 -21.647,44.771 -52.432,72.996c-4.411,4.044 -4.279,3.946 -5.19,4.733Z" style="fill:#fdfdfd;"/><path d="M25.401,925.813l3.734,2.547c-3.253,2.84 -2.474,8.035 -4.689,4.094c-1.096,-1.95 2.051,-4.691 0.955,-6.641Z" style="fill:#8b8eaa;"/><g transform="matrix(200,0,0,200,1642.312434,1515.161125)"></g><text x="298.112px" y="1515.161px" style="font-family:'GeneralSans-Semibold', 'General Sans';font-weight:600;font-size:200px;fill:#272d63;">FOUND<tspan x="1008.312px 1141.912px " y="1515.161px 1515.161px ">AT</tspan>ION</text></g></svg>