<?xml version="1.0" encoding="UTF-8" standalone="no"?><!DOCTYPE svg PUBLIC "-//W3C//DTD SVG 1.1//EN" "http://www.w3.org/Graphics/SVG/1.1/DTD/svg11.dtd"><svg width="100%" height="100%" viewBox="0 0 1368 918" version="1.1" xmlns="http://www.w3.org/2000/svg" xmlns:xlink="http://www.w3.org/1999/xlink" xml:space="preserve" xmlns:serif="http://www.serif.com/" style="fill-rule:evenodd;clip-rule:evenodd;stroke-linejoin:round;stroke-miterlimit:2;"><g><path d="M469.974,359.941c55.779,-45.314 94.658,-29.496 144.884,-20.709c38.514,6.738 93.921,-1.795 96.465,30.116c2.578,32.321 -44.509,24.866 -81.766,25.723c-15.194,0.35 -35.312,3.293 -28.326,4.779c16.102,3.426 15.792,4.39 31.854,7.689c86.495,17.761 93.047,-8.431 119.997,-47.724c1.903,-2.775 18.399,-26.826 35.783,-22.111c8.187,2.22 3.278,12.245 8.105,8.975c18.095,-12.258 29.922,-6.574 31.613,-5.489c3.952,2.535 4.324,6.013 4.691,6.551c0.872,1.28 18.871,-1.654 18.109,10.201c-0.818,12.733 -56.966,85.344 -113.749,99.885c-16.667,4.268 -23.624,13.425 -50.238,25.969c-40.893,19.273 -87.994,-13.187 -155.803,-24.044c-83.875,-13.43 -109.246,43.486 -118.628,53.78c-3.262,3.578 -3.715,-14.319 -3.748,-15.602c-1.635,-64.502 26.611,-96.356 30.87,-104.884c0.733,-1.469 -1.193,-2.733 -19.965,4.754c-19.248,7.677 -40.951,22.396 -24.651,9.521c24.224,-19.133 53.826,-26.605 55.129,-27.986c9.42,-9.987 9.071,-10.182 19.371,-19.392Z" style="fill:#262d64;stroke:#071500;stroke-opacity:0;stroke-width:4.17px;"/><path d="M762.577,427.138c-28.887,21.219 -28.774,25.093 -64.698,24.836c-99.155,-0.708 -191.326,-79.118 -264.74,-12.665c-8.49,7.685 -15.895,19.77 -13.24,11.953c10.389,-30.588 33.004,-62.278 37.848,-63.413c20.197,-4.735 83.772,2.726 121.006,18.521c3.576,1.517 3.855,-0.484 8.558,0.98c166.872,51.957 188.278,-59.923 231.219,-60.929c17.752,-0.416 2.082,18.092 -6.2,29.344c-21.994,29.879 -45.228,47.871 -49.752,51.373Z" style="fill:#fefefd;stroke:#071500;stroke-opacity:0;stroke-width:4.17px;"/><path d="M478.243,367.133c49.168,-37.78 77.466,-28.38 127.526,-18.828c46.462,8.865 94.999,-1.082 96.786,22.155c2.003,26.054 -55.345,9.473 -96.97,20.167c-12.881,3.309 -12.663,7.623 -22.853,4.28c-88.708,-29.096 -112.685,-15.045 -114.698,-17.697c-0.694,-0.914 -0.459,-1.391 10.209,-10.077Z" style="fill:#fefefe;stroke:#071500;stroke-opacity:0;stroke-width:4.17px;"/><path d="M412.469,505.614c-0.427,-42.458 7.685,-48.432 14.446,-55.498c55.438,-57.933 132.532,-14.577 188.941,0.244c81.386,21.383 95.808,8.78 90.307,13.587c-0.761,0.665 -18.254,8.947 -19.852,9.704c-43.149,20.429 -94.981,-20.17 -169.435,-25.747c-74.115,-5.552 -102.75,57.282 -103.387,58.407l-1.02,-0.696Z" style="fill:#fefefd;stroke:#071500;stroke-opacity:0;stroke-width:4.17px;"/><path d="M818.618,379.633c10.611,-14.34 12.226,-19.449 13.429,-21.784c1.786,-3.467 21.514,-6.675 12.187,7.763c-22.531,34.875 -82.993,77.733 -86.055,75.496c-4.318,-3.153 16.122,-4.632 60.439,-61.474Z" style="fill:#fdfcfc;stroke:#071500;stroke-opacity:0;stroke-width:4.17px;"/><path d="M760.406,378.351c-2.173,1.922 -30.324,26.831 -29.851,20.586c0.255,-3.375 4.428,-0.664 26.066,-33.32c1.672,-2.523 17.638,-26.619 30.161,-22.846c9.886,2.979 -9.909,20.493 -24,33.413c-2.019,1.851 -1.959,1.806 -2.376,2.167Z" style="fill:#fdfdfd;stroke:#071500;stroke-opacity:0;stroke-width:4.17px;"/></g><path d="M683.721,200.459c0.994,-0.839 11.775,-11.357 34.104,-20.353c22.764,-9.172 46.935,-11.545 48.723,-10.908c1.775,0.633 2.29,31.8 -9.164,62.917c-21.198,57.585 -81.838,59.909 -89.78,60.204c-2.923,0.109 1.644,-7.235 2.482,-8.899c26.253,-52.146 50.219,-68.555 52.095,-71.234c4.681,-6.684 -7.162,2.51 -7.681,2.913c-46.224,35.884 -50.141,62.233 -53.928,62.47c-1.049,0.066 -1.909,-0.173 -2.659,-12.864c-2.296,-38.835 16.395,-54.901 25.81,-64.246Z" style="fill:#fff;"/><path d="M632.486,214.671c7.212,11.243 16.993,27.618 12.17,61.838c-1.08,7.667 -8.347,-17.63 -35.423,-44.374c-16.281,-16.08 -41.021,-31.411 -23.624,-16.048c25.7,22.695 54.013,74.441 50.371,76.085c-0.25,0.113 -40.507,0.2 -68.306,-26.642c-5.706,-5.509 -32.175,-31.068 -31.461,-94.022c0.046,-4.05 10.532,-1.413 14.777,-0.79c54.645,8.016 77.061,38.018 81.495,43.952Z" style="fill:#fff;"/><circle cx="992.363" cy="591.607" r="54.708" style="fill:none;stroke:#fff;stroke-width:27.08px;stroke-linecap:round;stroke-linejoin:miter;stroke-miterlimit:1;"/><path d="M632.669,109.308c34.66,-21.552 66.576,23.321 42.773,48.699c-31.062,33.118 -83.586,-15.291 -42.773,-48.699Z" style="fill:#fff;"/><path d="M281.84,568.716c12.076,-12.919 37.555,-40.613 38.582,-41.461c1.867,-1.541 2.116,-1.531 30.191,-1.958c7.627,-0.116 -0.967,3.887 -40.851,48.563c-5.079,5.689 -10.255,6.631 -2.309,17.424c44.522,60.473 45.775,59.591 48.631,65.456c0.998,2.049 -0.416,4.293 -28.368,2.642c-7.359,-0.435 -33.421,-43.544 -44.124,-53.861c-2.194,-2.114 -9.304,6.381 -18.097,15.493c-4.592,4.759 -1.665,31.45 -2.488,35.603c-1.019,5.142 -26.452,2.355 -26.849,1.977c-2.216,-2.107 -1.201,-130.755 -0.961,-131.208c1.736,-3.277 2.836,-1.381 14.383,-1.396c5.908,-0.007 12.787,-2.14 12.9,4.744c0.814,49.279 -0.088,49.218 -0.011,53.497c0.091,5.11 3.574,1.509 19.371,-15.514Z" style="fill:#fff;"/><path d="M808.123,539.934c3.223,-2.405 22.289,-19.933 59.472,-15.507c20.551,2.447 45.064,16.651 39.355,22.888c-11.134,12.163 -11.913,16.136 -19.086,10.985c-22.152,-15.905 -56.523,-14.098 -71.073,14.757c-19.248,38.171 23.736,79.49 63.542,57.874c2.648,-1.438 1.477,-2.339 2.261,-35.378c0.124,-5.247 13.105,-3.793 21.17,-3.801c6.138,-0.006 4.587,7.668 4.56,26.701c-0.026,18.838 6.398,23.651 -10.424,32.146c-85.412,43.134 -153.272,-52.322 -89.777,-110.666Z" style="fill:#fff;"/><path d="M616.462,532.626c0.031,-0.473 0.335,-5.113 1.136,-5.811c1.596,-1.393 23.6,-1.023 25.147,-0.439c4.316,1.631 0.185,103.623 2.324,107.002c2.418,3.821 56.444,0.197 60.478,2.018c2.564,1.158 1.633,21.683 1.061,22.716c-1.715,3.098 -88.259,1.126 -88.975,0.452c-0.785,-0.739 -1.239,-0.832 -1.169,-125.939Z" style="fill:#fff;"/><path d="M467.788,549.795c-0.113,82.757 -0.557,84.884 3.113,85.19c12.551,1.044 58.616,-2.612 59.112,2.528c2.117,21.975 -2.108,22.125 -3.909,22.189c-0.582,0.021 -83.253,-0.051 -83.731,-0.211c-2.497,-0.838 -2.608,-1.828 -2.586,-73.46c0.018,-57.947 -0.196,-59.095 2.159,-59.696c1.538,-0.392 23.015,-1.366 24.998,0.631c1.231,1.24 0.842,14.665 0.845,22.83Z" style="fill:#fff;"/><path d="M734.023,659.296c-2.033,-0.242 -5.505,1.077 -5.566,-4.604c-0.11,-10.195 -1.353,-125 0.338,-127.44c1.152,-1.662 27.46,-3.655 27.674,1.631c0.137,3.387 0.411,126.511 0.209,127.678c-0.708,4.092 -14.312,2.742 -22.655,2.735Z" style="fill:#fff;"/><path d="M551.758,597.479c0.339,-22.273 -0.499,-66.401 0.201,-68.938c1.122,-4.066 26.852,-4.21 27.795,0.23c0.133,0.625 0.436,125.08 0.263,127.938c-0.235,3.898 -14.977,2.854 -21.47,2.756c-0.586,-0.009 -6.216,-0.094 -6.685,-3.003c-0.19,-1.176 -0.111,-54.264 -0.104,-58.983Z" style="fill:#fff;"/><path d="M374.845,652.78c0.008,-29.242 0.016,-58.484 0.024,-87.726c-0.014,-34.799 -1.818,-38.93 6.319,-39.101c20.793,-0.435 21.15,1.02 21.563,2.709c0.914,3.733 0.289,115.98 0.233,126.065c-0.02,3.601 -1.178,5.154 -23.746,4.614c-5.933,-0.142 -4.304,-5.96 -4.394,-6.561Z" style="fill:#fff;"/><g transform="matrix(91.547707,0,0,91.547707,967.990457,782.279327)"></g><text x="352.698px" y="782.279px" style="font-family:'GeneralSans-Semibold', 'General Sans';font-weight:600;font-size:91.548px;fill:#fff;">FOUND<tspan x="677.784px 738.938px " y="782.279px 782.279px ">AT</tspan>ION</text><rect id="Artboard1" x="0" y="0" width="1367.369" height="917.31" style="fill:none;"/></svg>